<!-- icon666.com - MILLIONS vector ICONS FREE --><svg viewBox="-14 0 512 512" xmlns="http://www.w3.org/2000/svg"><path d="m383.929688 461.71875v40.222656h-373.789063v-491.96875h373.789063v82.367188" fill="#f5f0eb"></path><path d="m253.300781 448.289062h-195.390625v-394.347656h279.121094v38.621094" fill="#5ecef4"></path><path d="m473.214844 256.535156v205.320313h-219.910156v-369.515625h219.910156v85.859375" fill="#fff"></path><path d="m292.816406 131.492188h140.117188v44.539062h-140.117188zm0 0" fill="#ff415b"></path><path d="m292.816406 340.96875h140.117188v44.539062h-140.117188zm0 0" fill="#5ecef4"></path><path d="m203.265625 466.03125-.355469-.269531c-4.40625-3.34375-10.691406-2.484375-14.035156 1.925781-3.34375 4.40625-2.480469 10.691406 1.925781 14.03125l.359375.273438c1.808594 1.371093 3.9375 2.035156 6.046875 2.035156 3.023438 0 6.015625-1.367188 7.988281-3.964844 3.339844-4.40625 2.476563-10.6875-1.929687-14.03125zm0 0"></path><path d="m263.195312 451.882812v-349.488281h199.878907v75.847657c0 5.527343 4.484375 10.015624 10.015625 10.015624s10.015625-4.488281 10.015625-10.015624v-85.863282c0-5.53125-4.484375-10.015625-10.015625-10.015625h-79.269532v-72.347656c0-5.53125-4.484374-10.015625-10.015624-10.015625h-373.789063c-5.53125 0-10.015625 4.484375-10.015625 10.015625v491.96875c0 5.53125 4.484375 10.015625 10.015625 10.015625h373.789063c5.53125 0 10.015624-4.484375 10.015624-10.015625v-30.070313h79.269532c5.53125 0 10.015625-4.484374 10.015625-10.015624v-205.320313c0-5.53125-4.484375-10.015625-10.015625-10.015625s-10.015625 4.484375-10.015625 10.015625v195.304687zm-10.015624-369.519531c-5.53125 0-10.015626 4.484375-10.015626 10.015625v345.9375h-175.363281v-374.316406h259.089844v18.363281zm120.609374 409.605469h-353.757812v-471.9375h353.757812v62.332031h-26.867187v-28.378906c0-5.53125-4.484375-10.015625-10.015625-10.015625h-279.121094c-5.53125 0-10.015625 4.484375-10.015625 10.015625v394.347656c0 5.53125 4.484375 10.015625 10.015625 10.015625h185.378906v3.550782c0 5.53125 4.484376 10.015624 10.015626 10.015624h120.609374zm0 0"></path><path d="m442.949219 131.492188c0-5.53125-4.484375-10.015626-10.015625-10.015626h-140.117188c-5.53125 0-10.015625 4.484376-10.015625 10.015626v44.539062c0 5.53125 4.484375 10.015625 10.015625 10.015625h140.117188c5.53125 0 10.015625-4.484375 10.015625-10.015625zm-20.03125 34.523437h-120.085938v-24.507813h120.085938zm0 0"></path><path d="m442.949219 340.96875c0-5.53125-4.484375-10.015625-10.015625-10.015625h-140.117188c-5.53125 0-10.015625 4.484375-10.015625 10.015625v44.539062c0 5.53125 4.484375 10.015626 10.015625 10.015626h140.117188c5.53125 0 10.015625-4.484376 10.015625-10.015626zm-20.03125 34.523438h-120.085938v-24.507813h120.085938zm0 0"></path><path d="m292.816406 230.683594h42.6875c5.53125 0 10.015625-4.484375 10.015625-10.015625s-4.484375-10.015625-10.015625-10.015625h-42.6875c-5.53125 0-10.015625 4.484375-10.015625 10.015625s4.484375 10.015625 10.015625 10.015625zm0 0"></path><path d="m432.933594 413.796875h-42.683594c-5.53125 0-10.015625 4.484375-10.015625 10.015625s4.484375 10.015625 10.015625 10.015625h42.683594c5.53125 0 10.015625-4.484375 10.015625-10.015625s-4.484375-10.015625-10.015625-10.015625zm0 0"></path><path d="m432.933594 250.457031h-140.117188c-5.53125 0-10.015625 4.484375-10.015625 10.015625s4.484375 10.015625 10.015625 10.015625h140.117188c5.53125 0 10.015625-4.484375 10.015625-10.015625s-4.484375-10.015625-10.015625-10.015625zm0 0"></path><path d="m292.816406 311.316406h103.929688c5.53125 0 10.015625-4.484375 10.015625-10.015625s-4.484375-10.015625-10.015625-10.015625h-103.929688c-5.53125 0-10.015625 4.484375-10.015625 10.015625s4.484375 10.015625 10.015625 10.015625zm0 0"></path><path d="m133.558594 77.875h-40.828125c-5.53125 0-10.015625 4.484375-10.015625 10.015625v39.226563c0 5.53125 4.484375 10.015624 10.015625 10.015624s10.015625-4.484374 10.015625-10.015624v-29.210938h30.8125c5.53125 0 10.015625-4.484375 10.015625-10.015625s-4.484375-10.015625-10.015625-10.015625zm0 0"></path><path d="m98.988281 159.410156-.410156-.3125c-4.40625-3.34375-10.6875-2.480468-14.03125 1.925782s-2.484375 10.6875 1.921875 14.03125l.410156.3125c1.808594 1.375 3.9375 2.039062 6.046875 2.039062 3.027344 0 6.015625-1.367188 7.984375-3.960938 3.347656-4.40625 2.484375-10.691406-1.921875-14.035156zm0 0"></path><path d="m479.476562 209.808594-.410156-.308594c-4.40625-3.34375-10.6875-2.484375-14.03125 1.921875-3.347656 4.40625-2.484375 10.691406 1.921875 14.035156l.410157.308594c1.808593 1.375 3.9375 2.039063 6.046874 2.039063 3.023438 0 6.015626-1.367188 7.984376-3.960938 3.34375-4.40625 2.484374-10.6875-1.921876-14.035156zm0 0"></path></svg>